<svg width="17" height="16" viewBox="0 0 17 16" fill="none" xmlns="http://www.w3.org/2000/svg">
<path d="M4.8665 15.1666C5.61984 15.1666 6.41317 14.9866 7.23317 14.6399C8.03317 14.2999 8.83984 13.8333 9.6265 13.2666C10.4065 12.6933 11.1598 12.0533 11.8732 11.3533C12.5798 10.6399 13.2198 9.88659 13.7865 9.11325C14.3598 8.31325 14.8198 7.51325 15.1465 6.73992C15.4932 5.91325 15.6665 5.11325 15.6665 4.35992C15.6665 3.83992 15.5732 3.34659 15.3932 2.88659C15.2065 2.41325 14.9065 1.97325 14.4998 1.59325C13.9865 1.08659 13.3998 0.833252 12.7732 0.833252C12.5132 0.833252 12.2465 0.893252 12.0198 0.999919C11.7598 1.11992 11.5398 1.29992 11.3798 1.53992L9.83317 3.71992C9.69317 3.91325 9.5865 4.09992 9.51317 4.28659C9.4265 4.48659 9.37984 4.68659 9.37984 4.87992C9.37984 5.13325 9.45317 5.37992 9.59317 5.61325C9.69317 5.79325 9.8465 5.98659 10.0398 6.17992L10.4932 6.65325C10.4865 6.67325 10.4798 6.68659 10.4732 6.69992C10.3932 6.83992 10.2332 7.07992 9.9265 7.43992C9.59984 7.81325 9.29317 8.15325 8.9865 8.46659C8.59317 8.85325 8.2665 9.15992 7.95984 9.41325C7.57984 9.73325 7.33317 9.89325 7.1865 9.96659L7.19984 9.99992L6.71317 9.51992C6.5065 9.31325 6.3065 9.15992 6.11317 9.05992C5.7465 8.83325 5.27984 8.79325 4.81317 8.98659C4.63984 9.05992 4.45317 9.15992 4.25317 9.29992L2.03984 10.8733C1.79317 11.0399 1.61317 11.2533 1.5065 11.5066C1.4065 11.7599 1.35984 11.9933 1.35984 12.2266C1.35984 12.5466 1.43317 12.8666 1.57317 13.1666C1.71317 13.4666 1.8865 13.7266 2.1065 13.9666C2.4865 14.3866 2.89984 14.6866 3.37984 14.8799C3.83984 15.0666 4.33984 15.1666 4.8665 15.1666ZM12.7732 1.83325C13.1398 1.83325 13.4798 1.99325 13.8065 2.31325C14.1132 2.59992 14.3265 2.91325 14.4598 3.25325C14.5998 3.59992 14.6665 3.96659 14.6665 4.35992C14.6665 4.97992 14.5198 5.65325 14.2265 6.34659C13.9265 7.05325 13.5065 7.78659 12.9732 8.51992C12.4398 9.25325 11.8332 9.96659 11.1665 10.6399C10.4998 11.2999 9.77984 11.9133 9.03984 12.4533C8.31984 12.9799 7.57984 13.4066 6.8465 13.7133C5.7065 14.1999 4.63984 14.3133 3.75984 13.9466C3.41984 13.8066 3.11984 13.5933 2.8465 13.2866C2.69317 13.1199 2.57317 12.9399 2.47317 12.7266C2.39317 12.5599 2.35317 12.3866 2.35317 12.2133C2.35317 12.1066 2.37317 11.9999 2.4265 11.8799C2.4465 11.8399 2.4865 11.7666 2.61317 11.6799L4.8265 10.1066C4.95984 10.0133 5.07984 9.94659 5.19317 9.89992C5.33984 9.83992 5.39984 9.77992 5.6265 9.91992C5.75984 9.98659 5.87984 10.0866 6.01317 10.2199L6.51984 10.7199C6.77984 10.9733 7.17984 11.0333 7.4865 10.9199L7.6665 10.8399C7.93984 10.6933 8.25984 10.4666 8.61317 10.1666C8.93317 9.89325 9.27984 9.57325 9.69984 9.15992C10.0265 8.82659 10.3532 8.47325 10.6932 8.07992C11.0065 7.71325 11.2332 7.39992 11.3732 7.13992L11.4532 6.93992C11.4932 6.78659 11.5065 6.69992 11.5065 6.60659C11.5065 6.36659 11.4198 6.15325 11.2532 5.98659L10.7532 5.46659C10.6198 5.33325 10.5198 5.20659 10.4532 5.09325C10.3998 5.00659 10.3798 4.93325 10.3798 4.86659C10.3798 4.81325 10.3998 4.73325 10.4332 4.65325C10.4798 4.54659 10.5532 4.42659 10.6465 4.29992L12.1932 2.11325C12.2598 2.01992 12.3398 1.95325 12.4398 1.90659C12.5465 1.85992 12.6598 1.83325 12.7732 1.83325ZM7.19984 10.0066L7.3065 10.4599L7.1265 9.99325C7.15984 9.98659 7.1865 9.99325 7.19984 10.0066Z" fill="#62D0B6"/>
<path d="M4.16667 6.50008C4.44 6.50008 4.66667 6.27341 4.66667 6.00008C4.66667 5.76008 4.90667 5.26008 5.30667 4.83341C5.7 4.41341 6.13333 4.16675 6.5 4.16675C6.77333 4.16675 7 3.94008 7 3.66675C7 3.39341 6.77333 3.16675 6.5 3.16675C5.85333 3.16675 5.17333 3.51341 4.58 4.14675C4.02667 4.74008 3.66667 5.46675 3.66667 6.00008C3.66667 6.27341 3.89333 6.50008 4.16667 6.50008Z" fill="#62D0B6"/>
<path d="M1.83333 6.49992C2.10667 6.49992 2.33333 6.27325 2.33333 5.99992C2.33333 3.69992 4.2 1.83325 6.5 1.83325C6.77333 1.83325 7 1.60659 7 1.33325C7 1.05992 6.77333 0.833252 6.5 0.833252C3.65333 0.833252 1.33333 3.15325 1.33333 5.99992C1.33333 6.27325 1.56 6.49992 1.83333 6.49992Z" fill="#62D0B6"/>
</svg>
