<svg width="40" height="40" viewBox="0 0 40 40" fill="none" xmlns="http://www.w3.org/2000/svg">
<rect width="40" height="40" rx="20" fill="#F8F8F8"/>
<path fill-rule="evenodd" clip-rule="evenodd" d="M13.3134 14.8458C13.2985 14.6808 13.3181 14.5144 13.3711 14.3574C13.424 14.2004 13.509 14.0561 13.6208 13.9338C13.7325 13.8115 13.8686 13.7137 14.0202 13.6469C14.1718 13.58 14.3356 13.5454 14.5013 13.5454H28.964C29.1427 13.5455 29.319 13.5857 29.48 13.663C29.641 13.7403 29.7826 13.8528 29.8944 13.9922C30.0061 14.1316 30.0851 14.2943 30.1256 14.4683C30.166 14.6423 30.1669 14.8231 30.1281 14.9975L28.9061 20.5058C28.6959 21.4524 28.1691 22.299 27.4127 22.9057C26.6563 23.5124 25.7156 23.843 24.7459 23.8428H18.019C16.9553 23.8429 15.9301 23.4451 15.1448 22.7276C14.3595 22.0101 13.871 21.0249 13.7753 19.9655L13.3134 14.8458ZM15.0603 15.2497L15.4728 19.8121C15.5303 20.448 15.8236 21.0394 16.2951 21.4699C16.7667 21.9005 17.3822 22.139 18.0207 22.1385H24.7476C25.3293 22.1384 25.8935 21.9399 26.3471 21.5758C26.8008 21.2117 27.1167 20.7038 27.2427 20.1359L28.3283 15.2497H15.0603Z" fill="#666666"/>
<path fill-rule="evenodd" clip-rule="evenodd" d="M9.78906 10.6852C9.78906 10.4592 9.87884 10.2424 10.0387 10.0826C10.1985 9.92279 10.4152 9.83301 10.6412 9.83301H13.6306C13.839 9.83322 14.0401 9.90982 14.1959 10.0483C14.3517 10.1868 14.4513 10.3776 14.4759 10.5846L15.161 16.3809C15.1875 16.6056 15.1236 16.8315 14.9834 17.0091C14.8433 17.1866 14.6383 17.3012 14.4137 17.3277C14.189 17.3541 13.9631 17.2902 13.7855 17.1501C13.608 17.0099 13.4934 16.805 13.4669 16.5803L12.8721 11.5356H10.6412C10.4152 11.5356 10.1985 11.4458 10.0387 11.286C9.87884 11.1262 9.78906 10.9112 9.78906 10.6852ZM17.4584 28.2957C17.6844 28.2957 17.9012 28.2059 18.061 28.0461C18.2208 27.8863 18.3106 27.6696 18.3106 27.4436C18.3106 27.2176 18.2208 27.0008 18.061 26.841C17.9012 26.6812 17.6844 26.5914 17.4584 26.5914C17.2324 26.5914 17.0157 26.6812 16.8559 26.841C16.696 27.0008 16.6063 27.2176 16.6063 27.4436C16.6063 27.6696 16.696 27.8863 16.8559 28.0461C17.0157 28.2059 17.2324 28.2957 17.4584 28.2957ZM17.4584 30C17.7941 30 18.1266 29.9339 18.4367 29.8054C18.7469 29.6769 19.0287 29.4886 19.2661 29.2512C19.5035 29.0139 19.6918 28.732 19.8203 28.4219C19.9487 28.1117 20.0149 27.7793 20.0149 27.4436C20.0149 27.1078 19.9487 26.7754 19.8203 26.4652C19.6918 26.1551 19.5035 25.8733 19.2661 25.6359C19.0287 25.3985 18.7469 25.2102 18.4367 25.0817C18.1266 24.9532 17.7941 24.8871 17.4584 24.8871C16.7804 24.8871 16.1302 25.1564 15.6507 25.6359C15.1713 26.1153 14.902 26.7655 14.902 27.4436C14.902 28.1216 15.1713 28.7718 15.6507 29.2512C16.1302 29.7307 16.7804 30 17.4584 30ZM25.2334 28.2957C25.4594 28.2957 25.6762 28.2059 25.836 28.0461C25.9958 27.8863 26.0856 27.6696 26.0856 27.4436C26.0856 27.2176 25.9958 27.0008 25.836 26.841C25.6762 26.6812 25.4594 26.5914 25.2334 26.5914C25.0074 26.5914 24.7907 26.6812 24.6309 26.841C24.4711 27.0008 24.3813 27.2176 24.3813 27.4436C24.3813 27.6696 24.4711 27.8863 24.6309 28.0461C24.7907 28.2059 25.0074 28.2957 25.2334 28.2957ZM25.2334 30C25.5692 30 25.9016 29.9339 26.2118 29.8054C26.5219 29.6769 26.8037 29.4886 27.0411 29.2512C27.2785 29.0139 27.4668 28.732 27.5953 28.4219C27.7238 28.1117 27.7899 27.7793 27.7899 27.4436C27.7899 27.1078 27.7238 26.7754 27.5953 26.4652C27.4668 26.1551 27.2785 25.8733 27.0411 25.6359C26.8037 25.3985 26.5219 25.2102 26.2118 25.0817C25.9016 24.9532 25.5692 24.8871 25.2334 24.8871C24.5554 24.8871 23.9052 25.1564 23.4258 25.6359C22.9463 26.1153 22.677 26.7655 22.677 27.4436C22.677 28.1216 22.9463 28.7718 23.4258 29.2512C23.9052 29.7307 24.5554 30 25.2334 30Z" fill="#666666"/>
</svg>
