<svg width="17" height="16" viewBox="0 0 17 16" fill="none" xmlns="http://www.w3.org/2000/svg">
<path fill-rule="evenodd" clip-rule="evenodd" d="M4.04229 4.56394C4.03235 4.45393 4.04543 4.34304 4.08071 4.23836C4.11599 4.13368 4.17269 4.0375 4.24719 3.95594C4.32169 3.87438 4.41237 3.80924 4.51344 3.76466C4.61451 3.72008 4.72376 3.69705 4.83422 3.69702H14.476C14.5951 3.69707 14.7127 3.72386 14.82 3.77542C14.9274 3.82698 15.0218 3.90198 15.0962 3.99489C15.1707 4.08781 15.2234 4.19627 15.2504 4.31226C15.2773 4.42825 15.2779 4.54882 15.2521 4.66506L14.4374 8.33727C14.2972 8.96833 13.946 9.53272 13.4418 9.9372C12.9375 10.3417 12.3104 10.5621 11.6639 10.5619H7.17934C6.47022 10.562 5.78673 10.2968 5.26321 9.81848C4.7397 9.34016 4.41402 8.68333 4.3502 7.97709L4.04229 4.56394ZM5.2069 4.83322L5.48186 7.87483C5.52017 8.29877 5.71573 8.69303 6.03008 8.98005C6.34443 9.26706 6.75481 9.42606 7.18048 9.42575H11.6651C12.0528 9.42565 12.429 9.29332 12.7314 9.0506C13.0338 8.80787 13.2444 8.46928 13.3285 8.09071L14.0522 4.83322H5.2069Z" fill="#62D0B6"/>
<path fill-rule="evenodd" clip-rule="evenodd" d="M1.69271 1.79015C1.69271 1.63948 1.75256 1.49498 1.8591 1.38844C1.96564 1.2819 2.11014 1.22205 2.26081 1.22205H4.25371C4.39267 1.22219 4.52676 1.27326 4.63061 1.36559C4.73446 1.45792 4.80087 1.58512 4.81726 1.72311L5.27402 5.58733C5.29164 5.7371 5.24906 5.88773 5.15562 6.0061C5.06219 6.12446 4.92556 6.20086 4.77579 6.21849C4.62603 6.23612 4.47539 6.19353 4.35703 6.1001C4.23866 6.00666 4.16226 5.87003 4.14463 5.72027L3.7481 2.35711H2.26081C2.11014 2.35711 1.96564 2.29726 1.8591 2.19072C1.75256 2.08418 1.69271 1.94082 1.69271 1.79015ZM6.80562 13.5305C6.95628 13.5305 7.10078 13.4707 7.20732 13.3641C7.31386 13.2576 7.37372 13.1131 7.37372 12.9624C7.37372 12.8117 7.31386 12.6672 7.20732 12.5607C7.10078 12.4542 6.95628 12.3943 6.80562 12.3943C6.65495 12.3943 6.51045 12.4542 6.40391 12.5607C6.29737 12.6672 6.23751 12.8117 6.23751 12.9624C6.23751 13.1131 6.29737 13.2576 6.40391 13.3641C6.51045 13.4707 6.65495 13.5305 6.80562 13.5305ZM6.80562 14.6667C7.02943 14.6667 7.25105 14.6226 7.45782 14.537C7.6646 14.4513 7.85248 14.3258 8.01074 14.1675C8.169 14.0093 8.29454 13.8214 8.38019 13.6146C8.46583 13.4078 8.50992 13.1862 8.50992 12.9624C8.50992 12.7386 8.46583 12.517 8.38019 12.3102C8.29454 12.1034 8.169 11.9155 8.01074 11.7573C7.85248 11.599 7.6646 11.4735 7.45782 11.3878C7.25105 11.3022 7.02943 11.2581 6.80562 11.2581C6.35361 11.2581 5.92011 11.4377 5.60049 11.7573C5.28087 12.0769 5.10131 12.5104 5.10131 12.9624C5.10131 13.4144 5.28087 13.8479 5.60049 14.1675C5.92011 14.4872 6.35361 14.6667 6.80562 14.6667ZM11.989 13.5305C12.1396 13.5305 12.2841 13.4707 12.3907 13.3641C12.4972 13.2576 12.5571 13.1131 12.5571 12.9624C12.5571 12.8117 12.4972 12.6672 12.3907 12.5607C12.2841 12.4542 12.1396 12.3943 11.989 12.3943C11.8383 12.3943 11.6938 12.4542 11.5873 12.5607C11.4807 12.6672 11.4209 12.8117 11.4209 12.9624C11.4209 13.1131 11.4807 13.2576 11.5873 13.3641C11.6938 13.4707 11.8383 13.5305 11.989 13.5305ZM11.989 14.6667C12.2128 14.6667 12.4344 14.6226 12.6412 14.537C12.8479 14.4513 13.0358 14.3258 13.1941 14.1675C13.3523 14.0093 13.4779 13.8214 13.5635 13.6146C13.6492 13.4078 13.6933 13.1862 13.6933 12.9624C13.6933 12.7386 13.6492 12.517 13.5635 12.3102C13.4779 12.1034 13.3523 11.9155 13.1941 11.7573C13.0358 11.599 12.8479 11.4735 12.6412 11.3878C12.4344 11.3022 12.2128 11.2581 11.989 11.2581C11.537 11.2581 11.1035 11.4377 10.7838 11.7573C10.4642 12.0769 10.2847 12.5104 10.2847 12.9624C10.2847 13.4144 10.4642 13.8479 10.7838 14.1675C11.1035 14.4872 11.537 14.6667 11.989 14.6667Z" fill="#62D0B6"/>
</svg>
