<svg width="16" height="16" viewBox="0 0 16 16" fill="none" xmlns="http://www.w3.org/2000/svg">
<path fill-rule="evenodd" clip-rule="evenodd" d="M3.54229 4.56394C3.53235 4.45393 3.54543 4.34304 3.58071 4.23836C3.61599 4.13368 3.67269 4.0375 3.74719 3.95594C3.82169 3.87438 3.91237 3.80924 4.01344 3.76466C4.11451 3.72008 4.22376 3.69705 4.33422 3.69702H13.976C14.0951 3.69707 14.2127 3.72386 14.32 3.77542C14.4274 3.82698 14.5218 3.90198 14.5962 3.99489C14.6707 4.08781 14.7234 4.19627 14.7504 4.31226C14.7773 4.42825 14.7779 4.54882 14.7521 4.66506L13.9374 8.33727C13.7972 8.96833 13.446 9.53272 12.9418 9.9372C12.4375 10.3417 11.8104 10.5621 11.1639 10.5619H6.67934C5.97022 10.562 5.28673 10.2968 4.76321 9.81848C4.2397 9.34016 3.91402 8.68333 3.8502 7.97709L3.54229 4.56394ZM4.7069 4.83322L4.98186 7.87483C5.02017 8.29877 5.21573 8.69303 5.53008 8.98005C5.84443 9.26706 6.25481 9.42606 6.68048 9.42575H11.1651C11.5528 9.42565 11.929 9.29332 12.2314 9.0506C12.5338 8.80787 12.7444 8.46928 12.8285 8.09071L13.5522 4.83322H4.7069Z" fill="white"/>
<path fill-rule="evenodd" clip-rule="evenodd" d="M1.1927 1.79015C1.1927 1.63948 1.25256 1.49498 1.3591 1.38844C1.46564 1.2819 1.61013 1.22205 1.7608 1.22205H3.7537C3.89266 1.22219 4.02675 1.27326 4.1306 1.36559C4.23445 1.45792 4.30086 1.58512 4.31726 1.72311L4.77401 5.58733C4.79164 5.7371 4.74905 5.88773 4.65561 6.0061C4.56218 6.12446 4.42555 6.20086 4.27578 6.21849C4.12602 6.23612 3.97538 6.19353 3.85702 6.1001C3.73865 6.00666 3.66225 5.87003 3.64462 5.72027L3.24809 2.35711H1.7608C1.61013 2.35711 1.46564 2.29726 1.3591 2.19072C1.25256 2.08418 1.1927 1.94082 1.1927 1.79015ZM6.30561 13.5305C6.45628 13.5305 6.60078 13.4707 6.70732 13.3641C6.81386 13.2576 6.87371 13.1131 6.87371 12.9624C6.87371 12.8117 6.81386 12.6672 6.70732 12.5607C6.60078 12.4542 6.45628 12.3943 6.30561 12.3943C6.15494 12.3943 6.01044 12.4542 5.9039 12.5607C5.79736 12.6672 5.73751 12.8117 5.73751 12.9624C5.73751 13.1131 5.79736 13.2576 5.9039 13.3641C6.01044 13.4707 6.15494 13.5305 6.30561 13.5305ZM6.30561 14.6667C6.52942 14.6667 6.75104 14.6226 6.95782 14.537C7.16459 14.4513 7.35247 14.3258 7.51073 14.1675C7.66899 14.0093 7.79453 13.8214 7.88018 13.6146C7.96583 13.4078 8.00991 13.1862 8.00991 12.9624C8.00991 12.7386 7.96583 12.517 7.88018 12.3102C7.79453 12.1034 7.66899 11.9155 7.51073 11.7573C7.35247 11.599 7.16459 11.4735 6.95782 11.3878C6.75104 11.3022 6.52942 11.2581 6.30561 11.2581C5.8536 11.2581 5.4201 11.4377 5.10048 11.7573C4.78087 12.0769 4.60131 12.5104 4.60131 12.9624C4.60131 13.4144 4.78087 13.8479 5.10048 14.1675C5.4201 14.4872 5.8536 14.6667 6.30561 14.6667ZM11.489 13.5305C11.6396 13.5305 11.7841 13.4707 11.8907 13.3641C11.9972 13.2576 12.0571 13.1131 12.0571 12.9624C12.0571 12.8117 11.9972 12.6672 11.8907 12.5607C11.7841 12.4542 11.6396 12.3943 11.489 12.3943C11.3383 12.3943 11.1938 12.4542 11.0872 12.5607C10.9807 12.6672 10.9209 12.8117 10.9209 12.9624C10.9209 13.1131 10.9807 13.2576 11.0872 13.3641C11.1938 13.4707 11.3383 13.5305 11.489 13.5305ZM11.489 14.6667C11.7128 14.6667 11.9344 14.6226 12.1412 14.537C12.3479 14.4513 12.5358 14.3258 12.6941 14.1675C12.8523 14.0093 12.9779 13.8214 13.0635 13.6146C13.1492 13.4078 13.1933 13.1862 13.1933 12.9624C13.1933 12.7386 13.1492 12.517 13.0635 12.3102C12.9779 12.1034 12.8523 11.9155 12.6941 11.7573C12.5358 11.599 12.3479 11.4735 12.1412 11.3878C11.9344 11.3022 11.7128 11.2581 11.489 11.2581C11.0369 11.2581 10.6035 11.4377 10.2838 11.7573C9.96422 12.0769 9.78466 12.5104 9.78466 12.9624C9.78466 13.4144 9.96422 13.8479 10.2838 14.1675C10.6035 14.4872 11.0369 14.6667 11.489 14.6667Z" fill="white"/>
</svg>
