<svg width="16" height="16" viewBox="0 0 16 16" fill="none" xmlns="http://www.w3.org/2000/svg">
<g clip-path="url(#clip0_0_1848)">
<path d="M15.3171 0.539231L15.2979 0.521666C14.9296 0.185278 14.4522 0 13.9537 0C13.3948 0 12.8582 0.236596 12.4814 0.649068L5.35685 8.44898C5.29191 8.52006 5.24266 8.60394 5.21221 8.69525L4.37447 11.2067C4.27761 11.497 4.32622 11.8181 4.50448 12.0656C4.68417 12.315 4.97364 12.4639 5.27889 12.4639C5.41092 12.4639 5.54002 12.4368 5.66242 12.3832L8.088 11.3221C8.17619 11.2835 8.2553 11.2269 8.32019 11.1558L15.4448 3.35591C16.1861 2.54431 16.129 1.28085 15.3171 0.539231ZM5.97955 10.7427L6.47113 9.26906L6.51259 9.22366L7.4443 10.0746L7.40284 10.1201L5.97955 10.7427ZM14.4289 2.42801L8.3722 9.05888L7.44049 8.20789L13.4972 1.57697C13.6157 1.44727 13.7778 1.37582 13.9537 1.37582C14.1081 1.37582 14.2559 1.43324 14.3702 1.53771L14.3895 1.55528C14.641 1.78499 14.6587 2.17651 14.4289 2.42801Z" fill="#62D0B6"/>
<path d="M13.9339 6.34657C13.554 6.34657 13.246 6.65457 13.246 7.03449V12.8747C13.246 13.8394 12.4612 14.6242 11.4966 14.6242H3.15912C2.19444 14.6242 1.40967 13.8394 1.40967 12.8747V4.60501C1.40967 3.64038 2.19448 2.85556 3.15912 2.85556H9.1938C9.57371 2.85556 9.88171 2.54756 9.88171 2.16765C9.88171 1.78774 9.57371 1.47974 9.1938 1.47974H3.15912C1.43581 1.47974 0.033844 2.88175 0.033844 4.60501V12.8747C0.033844 14.5979 1.43585 15.9999 3.15912 15.9999H11.4965C13.2198 15.9999 14.6218 14.5979 14.6218 12.8747V7.03449C14.6218 6.65457 14.3138 6.34657 13.9339 6.34657Z" fill="#62D0B6"/>
</g>
<defs>
<clipPath id="clip0_0_1848">
<rect width="16" height="16" fill="white"/>
</clipPath>
</defs>
</svg>
