<svg width="64" height="64" viewBox="0 0 64 64" fill="none" xmlns="http://www.w3.org/2000/svg">
<rect width="64" height="64" rx="32" fill="#D6F8F0" fill-opacity="0.5"/>
<path d="M42.866 43.7771H21.1344C19.8338 43.7754 18.587 43.2579 17.6675 42.3382C16.7479 41.4185 16.2307 40.1716 16.2292 38.871V25.1284C16.2307 23.8279 16.748 22.5811 17.6675 21.6616C18.5871 20.742 19.8339 20.2247 21.1344 20.2233H42.866C44.1666 20.2247 45.4135 20.7419 46.3332 21.6615C47.253 22.581 47.7704 23.8278 47.7721 25.1284V38.871C47.7707 40.1718 47.2533 41.4188 46.3336 42.3385C45.4138 43.2583 44.1668 43.7756 42.866 43.7771ZM21.1344 22.509C20.4399 22.5097 19.7741 22.7859 19.283 23.277C18.7919 23.7681 18.5157 24.4339 18.515 25.1284V38.871C18.5154 39.5657 18.7915 40.2318 19.2827 40.723C19.7738 41.2143 20.4397 41.4907 21.1344 41.4914H42.866C43.5608 41.4907 44.2269 41.2144 44.7181 40.7231C45.2094 40.2318 45.4857 39.5658 45.4864 38.871V25.1284C45.4854 24.4338 45.209 23.768 44.7178 23.2769C44.2266 22.7859 43.5606 22.5097 42.866 22.509H21.1344Z" fill="#62D0B6"/>
<path d="M31.9864 35.0763C31.0275 35.0858 30.0934 34.7717 29.3349 34.1849L17.1128 24.445C16.8757 24.256 16.7235 23.9806 16.6896 23.6793C16.6556 23.378 16.7427 23.0756 16.9317 22.8386C17.1208 22.6016 17.3962 22.4493 17.6975 22.4154C17.9987 22.3814 18.3011 22.4686 18.5381 22.6576L30.7567 32.3975C31.1176 32.6535 31.5495 32.7905 31.992 32.7893C32.4345 32.7882 32.8656 32.6489 33.2252 32.3911L45.2929 22.6622C45.5287 22.4719 45.8304 22.3832 46.1317 22.4154C46.4329 22.4476 46.7091 22.5982 46.8993 22.834C47.0895 23.0699 47.1783 23.3716 47.146 23.6728C47.1138 23.9741 46.9632 24.2502 46.7274 24.4404L34.6634 34.1693C33.8997 34.7665 32.9558 35.0863 31.9864 35.0763Z" fill="#62D0B6"/>
</svg>
