<svg width="17" height="16" viewBox="0 0 17 16" fill="none" xmlns="http://www.w3.org/2000/svg">
<g clip-path="url(#clip0_0_2400)">
<path d="M13.9331 13.8885H3.06732C2.41704 13.8876 1.79364 13.6289 1.33386 13.169C0.874086 12.7092 0.615472 12.0857 0.614746 11.4355V4.56414C0.615472 3.9139 0.8741 3.2905 1.33389 2.83072C1.79368 2.37093 2.41708 2.1123 3.06732 2.11157H13.9331C14.5834 2.1123 15.2069 2.37091 15.6667 2.83069C16.1266 3.29046 16.3853 3.91386 16.3862 4.56414V11.4355C16.3854 12.0858 16.1268 12.7093 15.6669 13.1692C15.207 13.6291 14.5835 13.8878 13.9331 13.8885ZM3.06732 3.25443C2.72007 3.25479 2.38715 3.3929 2.14161 3.63844C1.89607 3.88398 1.75797 4.2169 1.7576 4.56414V11.4355C1.75785 11.7828 1.8959 12.1158 2.14145 12.3615C2.387 12.6071 2.71999 12.7453 3.06732 12.7456H13.9331C14.2805 12.7453 14.6136 12.6071 14.8592 12.3615C15.1048 12.1159 15.243 11.7828 15.2433 11.4355V4.56414C15.2428 4.21686 15.1046 3.88394 14.859 3.63841C14.6134 3.39288 14.2804 3.25479 13.9331 3.25443H3.06732Z" fill="#62D0B6"/>
<path d="M8.49331 9.53816C8.01386 9.54288 7.54681 9.38586 7.1676 9.09245L1.05651 4.2225C0.937997 4.128 0.86188 3.99028 0.844906 3.83965C0.827931 3.68902 0.871489 3.53782 0.965997 3.4193C1.0605 3.30079 1.19822 3.22467 1.34885 3.2077C1.49948 3.19072 1.65068 3.23428 1.7692 3.32879L7.87845 8.19873C8.05893 8.32674 8.27485 8.39523 8.49611 8.39466C8.71737 8.39408 8.93293 8.32447 9.11274 8.19553L15.1466 3.33108C15.2645 3.23596 15.4153 3.19158 15.566 3.2077C15.7166 3.22382 15.8547 3.29911 15.9498 3.41702C16.0449 3.53493 16.0893 3.68579 16.0731 3.83642C16.057 3.98705 15.9817 4.1251 15.8638 4.22022L9.83182 9.08467C9.44999 9.38325 8.978 9.54316 8.49331 9.53816Z" fill="#62D0B6"/>
</g>
<defs>
<clipPath id="clip0_0_2400">
<rect width="16" height="16" fill="white" transform="translate(0.5)"/>
</clipPath>
</defs>
</svg>
