<svg width="16" height="17" viewBox="0 0 16 17" fill="none" xmlns="http://www.w3.org/2000/svg">
<g clip-path="url(#clip0_0_1859)">
<path d="M14.1241 9.08307V7.09601H14.5927C14.8515 7.09601 15.0613 6.8862 15.0613 6.62739V4.78411C15.0613 4.00889 14.4306 3.3782 13.6554 3.3782H11.9497C12.7214 2.06224 11.732 0.43171 10.2267 0.50221C9.55614 0.533178 8.96442 0.903803 8.6433 1.49465L7.9528 2.77261L7.26183 1.49361C6.9413 0.903803 6.34955 0.533178 5.67893 0.50221C4.1738 0.432022 3.18393 2.0618 3.9559 3.3782H2.34575C1.57053 3.3782 0.939842 4.00889 0.939842 4.78411V6.62742C0.939842 6.88623 1.14965 7.09604 1.40847 7.09604H1.87709V9.9391H0.471218C0.212406 9.9391 0.00259399 10.1489 0.00259399 10.4077V16.0313C0.00259399 16.2901 0.212406 16.5 0.471218 16.5H2.34575C2.5759 16.5 2.76693 16.3339 2.80646 16.1152C3.7249 16.3668 4.72043 16.5 5.69061 16.5H9.87514C10.8988 16.5 11.8768 16.0126 12.4934 15.1959C12.5029 15.1842 15.7088 11.2628 15.7178 11.2508C15.9015 11.0059 15.9986 10.7144 15.9986 10.4077C15.9986 9.44722 15.0457 8.75657 14.1241 9.08307ZM1.87712 12.2823V15.5627H0.939842V10.8763H1.87712V12.2823ZM13.6554 4.31548C13.9138 4.31548 14.1241 4.5257 14.1241 4.78411V6.15876H9.40648V4.31545C9.55445 4.31548 13.5121 4.31548 13.6554 4.31548ZM13.1868 7.09604V9.84151L11.223 11.8833C11.0506 11.3018 10.5118 10.8763 9.87514 10.8763H9.40651V7.09604H13.1868ZM9.46736 1.94114C9.62992 1.64205 9.92995 1.45415 10.27 1.43843C11.01 1.40418 11.5239 2.18961 11.163 2.86567C10.9917 3.18658 10.6745 3.37817 10.3145 3.37817C10.1181 3.37817 8.87386 3.37817 8.69095 3.37817L9.46736 1.94114ZM7.53195 4.31548C7.88083 4.31548 8.12936 4.31548 8.46923 4.31548V10.8763H7.7102C7.65024 10.8763 7.59067 10.8718 7.53195 10.8634V4.31548ZM5.5898 1.4374C5.60505 1.4374 5.62036 1.43774 5.63571 1.43846C5.97574 1.45418 6.2758 1.64208 6.4378 1.94018L7.21477 3.37824C6.48674 3.37824 6.04733 3.37824 5.59124 3.37824C5.23121 3.3782 4.91402 3.18664 4.74274 2.86571C4.38943 2.20389 4.8739 1.4374 5.5898 1.4374ZM1.87712 6.15876V4.78411C1.87712 4.5257 2.08734 4.31548 2.34575 4.31548C2.3804 4.31548 6.53902 4.31548 6.59471 4.31548V6.15879L1.87712 6.15876ZM6.59468 7.09604V10.3377C6.04536 9.95579 5.38696 9.74807 4.70452 9.74807C4.02209 9.74807 3.36365 9.95579 2.81437 10.3377V7.09604H6.59468ZM14.9729 10.6818L11.7618 14.61C11.7576 14.6151 11.7536 14.6202 11.7497 14.6255C11.3095 15.2123 10.6087 15.5627 9.87514 15.5627H5.69065C4.62949 15.5627 3.75402 15.4086 2.8144 15.1444V12.2823V11.5569L3.14096 11.2695C4.03234 10.4851 5.37671 10.4851 6.26811 11.2695C6.66877 11.6221 7.18517 11.8137 7.7102 11.8137H9.87514C10.1335 11.8137 10.3438 12.0239 10.3438 12.2823C10.3438 12.5407 10.1335 12.7509 9.87514 12.7509H6.54452C6.28571 12.7509 6.07589 12.9607 6.07589 13.2195C6.07589 13.4783 6.28571 13.6882 6.54452 13.6882H10.1892C10.5766 13.6882 10.9502 13.5262 11.2151 13.2436C11.3329 13.121 14.1444 10.1979 14.2445 10.0938C14.2453 10.093 14.246 10.092 14.2469 10.0911C14.2478 10.0902 14.2488 10.0894 14.2497 10.0884C14.5372 9.77969 15.0613 9.98151 15.0613 10.4077C15.0613 10.5072 15.0308 10.6018 14.9729 10.6818Z" fill="#62D0B6"/>
</g>
<defs>
<clipPath id="clip0_0_1859">
<rect width="16" height="16" fill="white" transform="translate(0 0.5)"/>
</clipPath>
</defs>
</svg>
