<svg width="32" height="28" viewBox="0 0 32 28" fill="none" xmlns="http://www.w3.org/2000/svg">
<path d="M0.00680363 20.2053C0.00680363 24.4124 3.41715 27.8228 7.62422 27.8228C11.8314 27.8228 15.2417 24.4124 15.2417 20.2053C15.2417 15.9982 11.8314 12.5879 7.62422 12.5879C6.7596 12.5879 5.93196 12.7386 5.15716 13.0042C6.87141 3.17257 14.5382 -3.16773 7.4311 2.05046C-0.449598 7.83686 -0.00163658 19.9725 0.00718155 20.1949C0.00718155 20.1984 0.00680363 20.2015 0.00680363 20.2053Z" fill="#EEEEEE"/>
<path d="M16.7651 20.2053C16.7651 24.4124 20.1755 27.8228 24.3826 27.8228C28.5897 27.8228 32.0001 24.4124 32.0001 20.2053C32.0001 15.9982 28.5897 12.5879 24.3825 12.5879C23.5179 12.5879 22.6903 12.7386 21.9155 13.0042C23.6297 3.17257 31.2965 -3.16773 24.1894 2.05046C16.3087 7.83686 16.7566 19.9725 16.7655 20.1949C16.7655 20.1984 16.7651 20.2015 16.7651 20.2053Z" fill="#EEEEEE"/>
</svg>
