<svg width="32" height="32" viewBox="0 0 32 32" fill="none" xmlns="http://www.w3.org/2000/svg">
<rect x="0.5" y="0.5" width="31" height="31" rx="15.5" fill="white"/>
<rect x="0.5" y="0.5" width="31" height="31" rx="15.5" stroke="#EEEEEE"/>
<path d="M20.9167 15.5834H16.4167V11.0834C16.4167 10.8533 16.2301 10.6667 16 10.6667C15.7699 10.6667 15.5833 10.8533 15.5833 11.0834V15.5834H11.0833C10.8532 15.5834 10.6667 15.77 10.6667 16.0001C10.6667 16.2302 10.8532 16.4167 11.0833 16.4167H15.5833V20.9167C15.5833 21.1469 15.7699 21.3334 16 21.3334C16.2301 21.3334 16.4167 21.1469 16.4167 20.9167V16.4167H20.9167C21.1468 16.4167 21.3333 16.2302 21.3333 16.0001C21.3333 15.77 21.1468 15.5834 20.9167 15.5834Z" fill="#666666"/>
</svg>
