<svg width="41" height="40" viewBox="0 0 41 40" fill="none" xmlns="http://www.w3.org/2000/svg">
<g clip-path="url(#clip0_0_1235)">
<path d="M26.9167 9.0625H14.4167C11.8321 9.0625 9.72925 11.1653 9.72925 13.75V26.25C9.72925 28.8347 11.8321 30.9375 14.4167 30.9375H26.9167C29.5014 30.9375 31.6042 28.8347 31.6042 26.25V13.75C31.6042 11.1653 29.5014 9.0625 26.9167 9.0625ZM28.4792 26.25C28.4792 27.1116 27.7783 27.8125 26.9167 27.8125H14.4167C13.5552 27.8125 12.8542 27.1116 12.8542 26.25V13.75C12.8542 12.8884 13.5552 12.1875 14.4167 12.1875H19.1042V16.875C19.1042 17.738 19.8038 18.4375 20.6667 18.4375C21.5297 18.4375 22.2292 17.738 22.2292 16.875V12.1875H26.9167C27.7783 12.1875 28.4792 12.8884 28.4792 13.75V26.25Z" fill="#62D0B6"/>
<path d="M36.2917 2.8125C35.4288 2.8125 34.7292 3.51203 34.7292 4.375V5.38805C33.4355 4.17664 31.9729 3.13961 30.3848 2.31562C27.4649 0.800781 24.1043 0 20.6667 0C9.45175 0 0.666748 8.78508 0.666748 20C0.666748 21.1347 0.761201 22.2731 0.947529 23.3836C1.07573 24.1471 1.73729 24.6878 2.48667 24.6877C2.57253 24.6877 2.65956 24.6806 2.74706 24.6659C3.59815 24.5231 4.17222 23.7175 4.02948 22.8664C3.87167 21.9264 3.79175 20.962 3.79175 20C3.79175 10.5373 11.2042 3.125 20.6667 3.125C26.6547 3.125 31.8756 5.81203 34.9907 10.497C35.3721 11.0708 36.0842 11.3268 36.7436 11.1277C37.403 10.9284 37.8542 10.3208 37.8542 9.63188V4.375C37.8542 3.51203 37.1547 2.8125 36.2917 2.8125Z" fill="#62D0B6"/>
<path d="M20.6667 40C17.2292 40 13.8686 39.1992 10.9487 37.6843C9.36058 36.8603 7.898 35.8234 6.60425 34.612V35.625C6.60425 36.488 5.90472 37.1875 5.04175 37.1875C4.17878 37.1875 3.47925 36.488 3.47925 35.625V30.3681C3.47925 29.6792 3.93042 29.0716 4.58987 28.8723C5.24917 28.6732 5.96144 28.9292 6.34284 29.503C9.45792 34.188 14.6788 36.875 20.6667 36.875C30.1293 36.875 37.5417 29.4627 37.5417 20C37.5417 19.0381 37.4618 18.0736 37.304 17.1336C37.1613 16.2825 37.7353 15.4769 38.5864 15.3341C39.4378 15.1912 40.2432 15.7654 40.386 16.6165C40.5723 17.7269 40.6667 18.8653 40.6667 20C40.6667 31.2149 31.8817 40 20.6667 40Z" fill="#62D0B6"/>
</g>
<defs>
<clipPath id="clip0_0_1235">
<rect width="40" height="40" fill="white" transform="translate(0.666748)"/>
</clipPath>
</defs>
</svg>
