<svg width="41" height="40" viewBox="0 0 41 40" fill="none" xmlns="http://www.w3.org/2000/svg">
<g clip-path="url(#clip0_0_1241)">
<path d="M30.5435 23.7815C27.7633 23.7815 25.5015 26.0433 25.5015 28.8235C25.5015 31.6038 27.7633 33.8656 30.5435 33.8656C33.3242 33.8656 35.5855 31.6038 35.5855 28.8235C35.5855 26.0433 33.3237 23.7815 30.5435 23.7815ZM30.5435 31.3445C29.1532 31.3445 28.0225 30.2138 28.0225 28.8235C28.0225 27.4332 29.1532 26.3025 30.5435 26.3025C31.9338 26.3025 33.0645 27.4332 33.0645 28.8235C33.0645 30.2139 31.9338 31.3445 30.5435 31.3445Z" fill="#62D0B6"/>
<path d="M13.3167 23.7815C10.5365 23.7815 8.27466 26.0433 8.27466 28.8235C8.27466 31.6038 10.5365 33.8656 13.3167 33.8656C16.0969 33.8656 18.3587 31.6038 18.3587 28.8235C18.3587 26.0433 16.0969 23.7815 13.3167 23.7815ZM13.3167 31.3445C11.9264 31.3445 10.7957 30.2138 10.7957 28.8235C10.7957 27.4332 11.9264 26.3025 13.3167 26.3025C14.7066 26.3025 15.8377 27.4332 15.8377 28.8235C15.8377 30.2139 14.707 31.3445 13.3167 31.3445Z" fill="#62D0B6"/>
<path d="M33.9385 9.34941C33.7242 8.92379 33.2885 8.65527 32.812 8.65527H26.1733V11.1763H32.0347L35.467 18.0032L37.72 16.8704L33.9385 9.34941Z" fill="#62D0B6"/>
<path d="M26.7622 27.6051H17.2244V30.1261H26.7622V27.6051Z" fill="#62D0B6"/>
<path d="M9.53396 27.605H5.16428C4.46803 27.605 3.90381 28.1693 3.90381 28.8654C3.90381 29.5617 4.46811 30.1259 5.16428 30.1259H9.53404C10.2303 30.1259 10.7945 29.5616 10.7945 28.8654C10.7945 28.1692 10.2302 27.605 9.53396 27.605Z" fill="#62D0B6"/>
<path d="M40.0676 19.899L37.5883 16.7057C37.3501 16.3981 36.9824 16.2183 36.5929 16.2183H27.4332V7.39475C27.4332 6.6985 26.8689 6.13428 26.1727 6.13428H5.16428C4.46803 6.13428 3.90381 6.69857 3.90381 7.39475C3.90381 8.09092 4.46811 8.65521 5.16428 8.65521H24.9122V17.4787C24.9122 18.175 25.4765 18.7392 26.1726 18.7392H35.9756L37.8113 21.1039V27.6047H34.3239C33.6276 27.6047 33.0634 28.169 33.0634 28.8652C33.0634 29.5615 33.6277 30.1257 34.3239 30.1257H39.0718C39.768 30.1257 40.3322 29.5614 40.3323 28.8652V20.6721C40.3323 20.3922 40.239 20.12 40.0676 19.899Z" fill="#62D0B6"/>
<path d="M9.45116 21.2185H3.6528C2.95655 21.2185 2.39233 21.7828 2.39233 22.479C2.39233 23.1752 2.95663 23.7394 3.6528 23.7394H9.45108C10.1473 23.7394 10.7116 23.1751 10.7116 22.479C10.7116 21.7828 10.1473 21.2185 9.45116 21.2185Z" fill="#62D0B6"/>
<path d="M12.3503 16.2605H1.59396C0.897793 16.2605 0.333496 16.8248 0.333496 17.521C0.333496 18.2173 0.897793 18.7815 1.59396 18.7815H12.3503C13.0465 18.7815 13.6108 18.2172 13.6108 17.521C13.6108 16.8249 13.0465 16.2605 12.3503 16.2605Z" fill="#62D0B6"/>
<path d="M14.4091 11.3025H3.6528C2.95655 11.3025 2.39233 11.8668 2.39233 12.563C2.39233 13.2592 2.95663 13.8234 3.6528 13.8234H14.4091C15.1054 13.8234 15.6696 13.2591 15.6696 12.563C15.6697 11.8668 15.1054 11.3025 14.4091 11.3025Z" fill="#62D0B6"/>
</g>
<defs>
<clipPath id="clip0_0_1241">
<rect width="40" height="40" fill="white" transform="translate(0.333496)"/>
</clipPath>
</defs>
</svg>
